<?xml version="1.0" encoding="UTF-8" standalone="no"?><!-- Generator: Gravit.io --><svg xmlns="http://www.w3.org/2000/svg" xmlns:xlink="http://www.w3.org/1999/xlink" style="isolation:isolate" viewBox="0 0 607 471" width="607pt" height="471pt"><defs><clipPath id="_clipPath_kmtljluKobS9eSNhlPo1GJSov1opkt1c"><rect width="607" height="471"/></clipPath></defs><g clip-path="url(#_clipPath_kmtljluKobS9eSNhlPo1GJSov1opkt1c)"><path d=" M 523 94 L 460 163 L 462 165 L 458 169 L 456 169 L 447 179 L 431 179 L 431 178 L 433 178 L 435 177 L 428 175 L 424 175 L 423 174 L 405 174 L 403 174 L 403 176 Q 402.813 175.688 401 176 Q 400.438 175.938 400 173 L 399 173 L 398 176 L 368 178 L 202 178 L 197 177 L 193 177 C 193.148 176.906 189.531 175.016 188 175 Q 186.469 174.984 185 176 L 182 177 L 179 177 L 178 177 L 177 176 L 175 177 Q 169.688 176.875 169 177 Q 168.313 177.125 162 177 L 158 177 L 137 177 L 116 178 L 114 177 L 111 177 L 108 176 L 103 177 L 82 177 L 81 178 C 78.855 178.029 69.865 177.705 52 177 L 50 178 L 43 178 Q 36.125 179.5 33 182 C 29.875 184.5 25.625 190.063 22 190 Q 18.375 189.938 16 190 L 16 192 L 13 193 Q 13.438 192.75 11 194 Q 8.563 195.25 8 198 Q 8.375 200.375 10 202 Q 11.625 203.625 15 206 L 24 211 L 29 213 L 32 214 L 34 215 L 38 217 L 40 219 L 42 223 L 45 224 L 55 224 L 59 224 L 65 224 L 67 223 L 70 223 L 76 223 L 79 223 L 84 223 L 88 223 L 89 223 L 92 225 Q 98.75 225.141 100 225 Q 101.25 224.859 111 225 L 112 226 L 114 227 L 115 224 L 118 224 L 118 226 L 120 229 L 122 227 L 122 225 L 124 226 L 124 224 L 150 224 L 151 225 L 152 226 L 154 227 L 157 225 L 158 226 L 160 224 L 170 224 L 172 225 L 176 225 L 182 225 L 183 226 L 191 226 L 193 227 L 196 226 L 197 227 L 197 234 L 199 235 L 205 235 L 210 240 L 210 242 L 207 243 L 206 245 L 212 246 L 219 246 L 225 246 L 228 247 L 232 247 L 234 244 L 234 241 L 235 240 Q 232.695 240.023 230.781 238.594 Q 228.867 237.164 226 237 L 223 237 L 219 236 L 218 235 L 219 234 L 253 235 L 255 236 L 257 234 L 259 237 L 261 235 L 261 236 L 268 236 L 269 234 L 270 235 L 272 236 L 300 236 L 301 234 L 304 233 L 306 233 L 306 230 L 305 228 L 305 226 L 311 226 L 316 227 L 360 227 L 365 227 L 366 229 L 367 226 L 369 226 L 369 229 L 371 229 L 371 228 L 373 226 L 393 226 L 394 227 L 396 226 L 403 226 L 404 224 L 407 224 L 407 229 L 409 230 L 411 229 L 411 224 L 416 224 L 418 227 L 420 227 L 421 226 L 420 223 L 423 222 L 435 222 L 439 221 L 448 221 L 451 220 L 460 219 L 464 218 L 479 217 L 499 215 L 537 211 L 550 210 L 564 210 L 578 209 L 591 209 L 593 209 L 595 209 Q 599.836 208.652 597 208 Q 594.684 207.467 594 207 L 594 200 L 595 198 L 595 196 L 595 193 L 594 189 L 593 188 L 593 186 L 596 186 L 595 184 L 594 182 L 592 181 L 589 180 L 543 180 L 564 94 L 523 94 Z " fill="rgb(0,0,0)" vector-effect="non-scaling-stroke" stroke-width="1" stroke="rgb(0,0,0)" stroke-linejoin="miter" stroke-linecap="square" stroke-miterlimit="3"/><path d=" M 300 325 C 300.188 324 298.5 320.625 298 320 C 297.5 319.375 295.688 319.75 295 320 C 294.313 320.25 293.5 321.75 292 322 Q 290.5 322.25 285 324 Q 278.25 325.938 276 327 Q 273.75 328.063 272 330 Q 277 331.375 279 331 Q 281 330.625 286 329 Q 291 327 293 327 Q 295 327 298 327 Q 299.813 326 300 325 Z " fill="rgb(0,0,0)" vector-effect="non-scaling-stroke" stroke-width="1" stroke="rgb(0,0,0)" stroke-linejoin="miter" stroke-linecap="square" stroke-miterlimit="3"/></g></svg>